<svg xmlns="http://www.w3.org/2000/svg" xmlns:xlink="http://www.w3.org/1999/xlink" width="1028" height="465" viewBox="0 0 1028 465">
    <defs>
        <path id="m2j4wudvoa" d="M0 0H1028V465H0z"/>
    </defs>
    <g fill="none" fillRule="evenodd">
        <g>
            <g transform="translate(-266 -11898) translate(266 11898)">
                <mask id="pdw7152uzb" fill="#fff">
                    <use xlink:href="#m2j4wudvoa"/>
                </mask>
                <use fill="#414042" xlink:href="#m2j4wudvoa"/>
                <g opacity=".312" style="mix-blend-mode:multiply" fill="#000" mask="url(#pdw7152uzb)">
                    <g>
                        <path d="M450 363v8.956c26.541.305 52.263 5.575 76.451 15.699 24.075 10.078 45.704 24.504 64.254 42.835 18.55 18.332 33.149 39.706 43.346 63.497 6.75 15.746 11.361 32.154 13.828 49.013H657c-14.157-100.942-101.235-178.82-207-180M449 241v9.032c42.885.31 84.467 8.824 123.608 25.313 38.52 16.228 73.12 39.46 102.819 69.023 29.698 29.564 53.037 64.006 69.34 102.35 13.08 30.765 21.151 63.046 24.134 96.282H778c-14.776-168.46-156.223-300.768-329-302" transform="translate(8 7)"/>
                        <path d="M449 122v9c59.284.312 116.785 11.956 170.931 34.646 53.017 22.218 100.634 54.026 141.521 94.525 40.885 40.498 72.995 87.666 95.424 140.183 19.422 45.475 30.811 93.343 34.03 142.646H900c-15.084-234.238-211.015-419.752-451-421" transform="translate(8 7)"/>
                        <path d="M449 62v9c67.49.312 132.957 13.536 194.611 39.354 60.27 25.24 114.403 61.373 160.887 107.39 46.483 46.016 82.983 99.603 108.478 159.27C935.57 429.892 948.602 485.607 951.895 543H961C945.815 275.604 722.612 63.255 449 62" transform="translate(8 7)"/>
                        <path d="M450 0v9.017c75.3.313 148.35 15.144 217.152 44.143 67.172 28.313 127.501 68.847 179.311 120.477 51.81 51.628 92.485 111.747 120.896 178.686 25.634 60.395 40.246 124.073 43.58 189.677H1020C1004.82 240.891 755.634 1.263 450 0M303 543.071c0 .312.02.617.024.929h9.024c-.002-.31-.023-.618-.023-.929 0-19.139 3.78-37.664 11.157-55.03 7.124-16.77 17.322-31.84 30.26-44.754 12.938-12.914 28.036-23.093 44.839-30.204 16.664-7.052 34.402-10.772 52.719-11.076V393c-81.954 1.293-148 67.964-148 150.071M182 542.072c0 .31.01.618.012.928h9.058c0-.31-.023-.618-.023-.928 0-35.312 6.967-69.536 20.65-101.7 13.218-31.068 32.139-58.975 56.202-82.921 24.062-23.947 52.106-42.775 83.325-55.928 31.583-13.306 65.15-20.181 99.776-20.49V272c-148.785 1.297-269 121.704-269 270.072" transform="translate(8 7)"/>
                        <path d="M122 543.072c0 .31.011.618.012.928h9.065c-.001-.31-.011-.619-.011-.928 0-43.4 8.573-85.476 25.436-125.042 16.288-38.216 39.606-72.544 69.277-102.007 29.67-29.464 64.24-52.619 102.725-68.793 39.106-16.434 80.65-24.92 123.496-25.228V213c-182.475 1.298-330 148.566-330 330.072" transform="translate(8 7)"/>
                        <path d="M0 542.072c0 .31.011.618.012.928h9.067c0-.31-.01-.619-.01-.928 0-59.576 11.76-117.355 34.93-171.722 22.38-52.516 54.423-99.683 95.22-140.182 40.798-40.498 88.313-72.305 141.218-94.522C334.467 112.956 391.843 101.312 451 101V92C201.698 93.3 0 294.292 0 542.072" transform="translate(8 7)"/>
                    </g>
                </g>
            </g>
        </g>
    </g>
</svg>
